STARTFONT 2.1
FONT -Bitstream-Terminal-Medium-R-Double Wide--18-140-100-100-C-220-DEC-DECtech
SIZE 14 100 100
FONTBOUNDINGBOX 22 20 0 -5

STARTPROPERTIES 25
CHARSET_REGISTRY "DEC"
CHARSET_ENCODING "DECtech"
CAP_HEIGHT 11
X_HEIGHT 9
AVERAGE_WIDTH 220
FONTNAME_REGISTRY ""
FAMILY_NAME "Terminal"
FOUNDRY "Bitstream"
WEIGHT_NAME "Medium"
SETWIDTH_NAME "Double Wide"
SLANT "R"
ADD_STYLE_NAME ""
PIXEL_SIZE 18
POINT_SIZE 140
RESOLUTION_X 100
RESOLUTION_Y 100
SPACING "C"
CHARSET_COLLECTIONS "DEC-DECtech"
FULL_NAME "Terminal Double Wide"
COPYRIGHT "Copyright (c) 1988 Bitstream, Inc., Copyright 1990 Digital Equipment Corp. All rights reserved."
WEIGHT 10
QUAD_WIDTH 22
DEFAULT_CHAR 159
FONT_DESCENT 5
FONT_ASCENT 15
ENDPROPERTIES

CHARS 181

STARTCHAR space
ENCODING 32
SWIDTH 1131 0
DWIDTH 22 0
BBX 1 1 0 0
BITMAP
00
ENDCHAR

STARTCHAR exclam
ENCODING 33
SWIDTH 1131 0
DWIDTH 22 0
BBX 6 11 8 0
BITMAP
78
78
78
78
78
78
78
00
78
FC
78
ENDCHAR

STARTCHAR quotedbl
ENCODING 34
SWIDTH 1131 0
DWIDTH 22 0
BBX 12 6 5 7
BITMAP
F0F0
F0F0
F0F0
F0F0
F0F0
F0F0
ENDCHAR

STARTCHAR numbersign
ENCODING 35
SWIDTH 1131 0
DWIDTH 22 0
BBX 20 14 1 -3
BITMAP
0F0F00
0F0F00
0F0F00
0F0F00
FFFFF0
0F0F00
0F0F00
0F0F00
FFFFF0
0F0F00
0F0F00
0F0F00
0F0F00
0F0F00
ENDCHAR

STARTCHAR dollar
ENCODING 36
SWIDTH 1131 0
DWIDTH 22 0
BBX 16 16 3 -3
BITMAP
00C0
00C0
1FCF
7C3F
F00F
F000
7C00
1FFC
003F
000F
F00F
FC3E
F3F8
0300
0300
0300
ENDCHAR

STARTCHAR percent
ENCODING 37
SWIDTH 1131 0
DWIDTH 22 0
BBX 18 11 2 0
BITMAP
7F0000
E38000
C18000
E38380
7F1C00
00E000
073F80
3871C0
0060C0
0071C0
003F80
ENDCHAR

STARTCHAR ampersand
ENCODING 38
SWIDTH 1131 0
DWIDTH 22 0
BBX 14 11 4 0
BITMAP
0FB0
3C70
3800
3800
1C00
7E3C
F730
F3B0
F1F0
F0F0
7F3C
ENDCHAR

STARTCHAR quoteright
ENCODING 39
SWIDTH 1131 0
DWIDTH 22 0
BBX 7 5 7 8
BITMAP
3E
3C
78
F0
60
ENDCHAR

STARTCHAR parenleft
ENCODING 40
SWIDTH 1131 0
DWIDTH 22 0
BBX 8 15 7 -3
BITMAP
03
0E
1C
38
78
70
F0
F0
F0
70
78
38
1C
0E
03
ENDCHAR

STARTCHAR parenright
ENCODING 41
SWIDTH 1131 0
DWIDTH 22 0
BBX 8 15 7 -3
BITMAP
C0
70
38
1C
1E
0E
0F
0F
0F
0E
1E
1C
38
70
C0
ENDCHAR

STARTCHAR asterisk
ENCODING 42
SWIDTH 1131 0
DWIDTH 22 0
BBX 16 8 3 1
BITMAP
03C0
03C0
F3CF
3FFC
0FF0
0FF0
3C3C
381C
ENDCHAR

STARTCHAR plus
ENCODING 43
SWIDTH 1131 0
DWIDTH 22 0
BBX 16 10 3 0
BITMAP
03C0
03C0
03C0
03C0
FFFF
FFFF
03C0
03C0
03C0
03C0
ENDCHAR

STARTCHAR comma
ENCODING 44
SWIDTH 1131 0
DWIDTH 22 0
BBX 7 6 7 -3
BITMAP
3E
3C
78
78
F0
60
ENDCHAR

STARTCHAR minus
ENCODING 45
SWIDTH 1131 0
DWIDTH 22 0
BBX 18 2 2 4
BITMAP
FFFFC0
FFFFC0
ENDCHAR

STARTCHAR period
ENCODING 46
SWIDTH 1131 0
DWIDTH 22 0
BBX 8 3 7 0
BITMAP
7E
FF
7E
ENDCHAR

STARTCHAR slash
ENCODING 47
SWIDTH 1131 0
DWIDTH 22 0
BBX 15 13 3 -2
BITMAP
000E
001C
0038
0070
00E0
01C0
0380
0700
0E00
1C00
3800
7000
E000
ENDCHAR

STARTCHAR zero
ENCODING 48
SWIDTH 1131 0
DWIDTH 22 0
BBX 15 11 3 0
BITMAP
0FE0
3C78
783C
F01E
F01E
F01E
F01E
F01E
783C
3C78
0FE0
ENDCHAR

STARTCHAR one
ENCODING 49
SWIDTH 1131 0
DWIDTH 22 0
BBX 12 11 5 0
BITMAP
1F00
3F00
6F00
CF00
0F00
0F00
0F00
0F00
0F00
0F00
FFF0
ENDCHAR

STARTCHAR two
ENCODING 50
SWIDTH 1131 0
DWIDTH 22 0
BBX 15 11 3 0
BITMAP
3FFC
F03E
F01E
001E
001C
0078
01E0
0380
0E00
3C1E
FFFE
ENDCHAR

STARTCHAR three
ENCODING 51
SWIDTH 1131 0
DWIDTH 22 0
BBX 15 11 3 0
BITMAP
3FFC
E03E
001E
001E
003C
07F0
003C
001E
001E
E03E
3FFC
ENDCHAR

STARTCHAR four
ENCODING 52
SWIDTH 1131 0
DWIDTH 22 0
BBX 14 11 4 0
BITMAP
03F0
07F0
0EF0
1CF0
38F0
70F0
E0F0
FFFC
00F0
00F0
03FC
ENDCHAR

STARTCHAR five
ENCODING 53
SWIDTH 1131 0
DWIDTH 22 0
BBX 15 11 3 0
BITMAP
FFF8
F000
F000
F000
FFF0
E03C
001E
001E
001E
F03C
3FF0
ENDCHAR

STARTCHAR six
ENCODING 54
SWIDTH 1131 0
DWIDTH 22 0
BBX 15 11 3 0
BITMAP
01FC
0F80
3C00
7800
F3F0
FC3C
F01E
F01E
F01E
783C
1FF0
ENDCHAR

STARTCHAR seven
ENCODING 55
SWIDTH 1131 0
DWIDTH 22 0
BBX 15 11 3 0
BITMAP
FFFE
F01E
003C
0038
0078
00F0
00E0
01E0
01C0
03C0
0780
ENDCHAR

STARTCHAR eight
ENCODING 56
SWIDTH 1131 0
DWIDTH 22 0
BBX 15 11 3 0
BITMAP
1FF0
783C
F01E
F01E
783C
1FF0
783C
F01E
F01E
783C
3FF8
ENDCHAR

STARTCHAR nine
ENCODING 57
SWIDTH 1131 0
DWIDTH 22 0
BBX 15 11 3 0
BITMAP
1FF0
783C
F01E
F01E
F01E
787E
1F9E
003C
0078
01E0
7F00
ENDCHAR

STARTCHAR colon
ENCODING 58
SWIDTH 1131 0
DWIDTH 22 0
BBX 8 9 7 0
BITMAP
7E
FF
7E
00
00
00
7E
FF
7E
ENDCHAR

STARTCHAR semicolon
ENCODING 59
SWIDTH 1131 0
DWIDTH 22 0
BBX 9 12 6 -3
BITMAP
3F00
7F80
3F00
0000
0000
0000
3E00
3C00
7800
7800
F000
6000
ENDCHAR

STARTCHAR less
ENCODING 60
SWIDTH 1131 0
DWIDTH 22 0
BBX 18 9 2 1
BITMAP
0003C0
003FC0
03FC00
3FC000
FC0000
3FC000
03FC00
003FC0
0003C0
ENDCHAR

STARTCHAR equal
ENCODING 61
SWIDTH 1131 0
DWIDTH 22 0
BBX 16 6 3 2
BITMAP
FFFF
FFFF
0000
0000
FFFF
FFFF
ENDCHAR

STARTCHAR greater
ENCODING 62
SWIDTH 1131 0
DWIDTH 22 0
BBX 18 9 2 1
BITMAP
F00000
FF0000
0FF000
00FF00
000FC0
00FF00
0FF000
FF0000
F00000
ENDCHAR

STARTCHAR question
ENCODING 63
SWIDTH 1131 0
DWIDTH 22 0
BBX 16 11 3 0
BITMAP
7FFE
F00F
000F
001F
01FC
0FE0
0F00
0000
0F00
1F80
0F00
ENDCHAR

STARTCHAR at
ENCODING 64
SWIDTH 1131 0
DWIDTH 22 0
BBX 20 14 1 -2
BITMAP
0FFC00
3C0700
780380
7003C0
F07FC0
F1C3C0
F3C3C0
F3C3C0
F3C3C0
F1FFF0
780000
780000
3E01C0
0FFF00
ENDCHAR

STARTCHAR A
ENCODING 65
SWIDTH 1131 0
DWIDTH 22 0
BBX 22 11 0 0
BITMAP
00FC00
01FE00
01CE00
03CF00
078780
070380
0F03C0
1FFFE0
1C00E0
3C00F0
FF87FC
ENDCHAR

STARTCHAR B
ENCODING 66
SWIDTH 1131 0
DWIDTH 22 0
BBX 18 11 2 0
BITMAP
FFFE00
3C0F00
3C0F00
3C0F00
3C0E00
3FFF80
3C03C0
3C03C0
3C03C0
3C03C0
FFFF80
ENDCHAR

STARTCHAR C
ENCODING 67
SWIDTH 1131 0
DWIDTH 22 0
BBX 18 11 2 0
BITMAP
0FF8C0
3C0FC0
7803C0
F001C0
F00000
F00000
F00000
F00000
7800C0
3C0780
0FFC00
ENDCHAR

STARTCHAR D
ENCODING 68
SWIDTH 1131 0
DWIDTH 22 0
BBX 18 11 2 0
BITMAP
FFFC00
3C0F00
3C0780
3C03C0
3C03C0
3C03C0
3C03C0
3C03C0
3C0780
3C0F00
FFFC00
ENDCHAR

STARTCHAR E
ENCODING 69
SWIDTH 1131 0
DWIDTH 22 0
BBX 18 11 2 0
BITMAP
FFFFC0
0F00C0
0F00C0
0F0C00
0F0C00
0FFC00
0F0C00
0F00C0
0F00C0
0F00C0
FFFFC0
ENDCHAR

STARTCHAR F
ENCODING 70
SWIDTH 1131 0
DWIDTH 22 0
BBX 18 11 2 0
BITMAP
FFFFC0
0F00C0
0F00C0
0F0C00
0F0C00
0FFC00
0F0C00
0F0C00
0F0000
0F0000
FFF000
ENDCHAR

STARTCHAR G
ENCODING 71
SWIDTH 1131 0
DWIDTH 22 0
BBX 20 11 1 0
BITMAP
0FF8C0
3C0FC0
7803C0
F001C0
F00000
F00000
F03FF0
F003C0
7803C0
3C03C0
0FFF00
ENDCHAR

STARTCHAR H
ENCODING 72
SWIDTH 1131 0
DWIDTH 22 0
BBX 18 11 2 0
BITMAP
FF3FC0
3C0F00
3C0F00
3C0F00
3C0F00
3FFF00
3C0F00
3C0F00
3C0F00
3C0F00
FF3FC0
ENDCHAR

STARTCHAR I
ENCODING 73
SWIDTH 1131 0
DWIDTH 22 0
BBX 16 11 3 0
BITMAP
FFFF
03C0
03C0
03C0
03C0
03C0
03C0
03C0
03C0
03C0
FFFF
ENDCHAR

STARTCHAR J
ENCODING 74
SWIDTH 1131 0
DWIDTH 22 0
BBX 18 11 2 0
BITMAP
0FFFC0
003C00
003C00
003C00
003C00
003C00
C03C00
C03C00
E03C00
F03C00
3FF800
ENDCHAR

STARTCHAR K
ENCODING 75
SWIDTH 1131 0
DWIDTH 22 0
BBX 18 11 2 0
BITMAP
FF3FC0
3C0F00
3C3C00
3CF000
3FE000
3FF000
3C7800
3C3C00
3C1E00
3C0F00
FF0FC0
ENDCHAR

STARTCHAR L
ENCODING 76
SWIDTH 1131 0
DWIDTH 22 0
BBX 18 11 2 0
BITMAP
FFF000
0F0000
0F0000
0F0000
0F0000
0F0000
0F0000
0F00C0
0F00C0
0F00C0
FFFFC0
ENDCHAR

STARTCHAR M
ENCODING 77
SWIDTH 1131 0
DWIDTH 22 0
BBX 22 11 0 0
BITMAP
FF03FC
3F87F0
3D86F0
3CCCF0
3CCCF0
3C78F0
3C78F0
3C30F0
3C30F0
3C00F0
FF03FC
ENDCHAR

STARTCHAR N
ENCODING 78
SWIDTH 1131 0
DWIDTH 22 0
BBX 20 11 1 0
BITMAP
FE0FF0
3F03C0
3D83C0
3CC3C0
3C63C0
3C33C0
3C33C0
3C1BC0
3C0FC0
3C07C0
FFC3C0
ENDCHAR

STARTCHAR O
ENCODING 79
SWIDTH 1131 0
DWIDTH 22 0
BBX 19 11 1 0
BITMAP
0FFE00
3C0F80
7803C0
F001E0
F001E0
F001E0
F001E0
F001E0
7803C0
3C0F80
0FFE00
ENDCHAR

STARTCHAR P
ENCODING 80
SWIDTH 1131 0
DWIDTH 22 0
BBX 18 11 2 0
BITMAP
FFFF80
0F03C0
0F03C0
0F03C0
0F03C0
0F03C0
0FFF80
0F0000
0F0000
0F0000
FFF000
ENDCHAR

STARTCHAR Q
ENCODING 81
SWIDTH 1131 0
DWIDTH 22 0
BBX 20 15 1 -4
BITMAP
0FFC00
3C0F00
780780
F003C0
F003C0
F003C0
F003C0
F003C0
780780
3C0F00
0FFC00
038000
030030
0FFFF0
0F1FC0
ENDCHAR

STARTCHAR R
ENCODING 82
SWIDTH 1131 0
DWIDTH 22 0
BBX 20 11 1 0
BITMAP
FFFF80
3C07C0
3C03C0
3C03C0
3C0780
3FFE00
3C1E00
3C0F00
3C0780
3C03C0
FF01F0
ENDCHAR

STARTCHAR S
ENCODING 83
SWIDTH 1131 0
DWIDTH 22 0
BBX 16 11 3 0
BITMAP
1FCF
7C3F
F00F
F000
7C00
1FFC
001F
000F
F00F
FC3E
F3F8
ENDCHAR

STARTCHAR T
ENCODING 84
SWIDTH 1131 0
DWIDTH 22 0
BBX 20 11 1 0
BITMAP
FFFFF0
C0F030
C0F030
C0F030
C0F030
00F000
00F000
00F000
00F000
00F000
07FE00
ENDCHAR

STARTCHAR U
ENCODING 85
SWIDTH 1131 0
DWIDTH 22 0
BBX 20 11 1 0
BITMAP
FF0FF0
3C03C0
3C03C0
3C03C0
3C03C0
3C03C0
3C03C0
3C03C0
1C0380
1E0780
07FE00
ENDCHAR

STARTCHAR V
ENCODING 86
SWIDTH 1131 0
DWIDTH 22 0
BBX 22 11 0 0
BITMAP
FF03FC
3C00F0
1E01E0
0F03C0
070380
078780
03CF00
01CE00
00FC00
007800
003000
ENDCHAR

STARTCHAR W
ENCODING 87
SWIDTH 1131 0
DWIDTH 22 0
BBX 22 11 0 0
BITMAP
FF87FC
3C00F0
3C00F0
3C30F0
3C30F0
1C78E0
1CFCE0
1DCEE0
1F87E0
0F03C0
0E01C0
ENDCHAR

STARTCHAR X
ENCODING 88
SWIDTH 1131 0
DWIDTH 22 0
BBX 18 11 2 0
BITMAP
FF3FC0
3C0F00
1E1E00
0F3C00
07F800
03F000
07F800
0F3C00
1E1E00
3C0F00
FF3FC0
ENDCHAR

STARTCHAR Y
ENCODING 89
SWIDTH 1131 0
DWIDTH 22 0
BBX 20 11 1 0
BITMAP
FF0FF0
3C03C0
1E0780
0F0F00
079E00
03FC00
01F800
00F000
00F000
00F000
07FE00
ENDCHAR

STARTCHAR Z
ENCODING 90
SWIDTH 1131 0
DWIDTH 22 0
BBX 16 11 3 0
BITMAP
7FFE
601E
603C
00F8
01F0
03E0
0780
1F00
3E03
FC03
FFFF
ENDCHAR

STARTCHAR bracketleft
ENCODING 91
SWIDTH 1131 0
DWIDTH 22 0
BBX 8 14 7 -2
BITMAP
FF
F0
F0
F0
F0
F0
F0
F0
F0
F0
F0
F0
F0
FF
ENDCHAR

STARTCHAR backslash
ENCODING 92
SWIDTH 1131 0
DWIDTH 22 0
BBX 15 13 3 -2
BITMAP
E000
7000
3800
1C00
0E00
0700
0380
01C0
00E0
0070
0038
001C
000E
ENDCHAR

STARTCHAR bracketright
ENCODING 93
SWIDTH 1131 0
DWIDTH 22 0
BBX 8 14 7 -2
BITMAP
FF
0F
0F
0F
0F
0F
0F
0F
0F
0F
0F
0F
0F
FF
ENDCHAR

STARTCHAR asciicircum
ENCODING 94
SWIDTH 1131 0
DWIDTH 22 0
BBX 14 4 4 5
BITMAP
0300
0FC0
3CF0
F03C
ENDCHAR

STARTCHAR ldblank
ENCODING 95
SWIDTH 1131 0
DWIDTH 22 0
BBX 1 1 0 0
BITMAP
00
ENDCHAR

STARTCHAR diamond
ENCODING 96
SWIDTH 1131 0
DWIDTH 22 0
BBX 18 11 2 0
BITMAP
00C000
03F000
07F800
1FFE00
3FFF00
FFFFC0
3FFF00
1FFE00
07F800
03F000
00C000
ENDCHAR

STARTCHAR checkerboard
ENCODING 97
SWIDTH 1131 0
DWIDTH 22 0
BBX 22 20 0 -5
BITMAP
AAAAA8
555554
AAAAA8
555554
AAAAA8
555554
AAAAA8
555554
AAAAA8
555554
AAAAA8
555554
AAAAA8
555554
AAAAA8
555554
AAAAA8
555554
AAAAA8
555554
ENDCHAR

STARTCHAR HT
ENCODING 98
SWIDTH 1131 0
DWIDTH 22 0
BBX 20 13 1 -1
BITMAP
F0F000
F0F000
FFF000
F0F000
F0F000
F0F000
000000
000FF0
0003C0
0003C0
0003C0
0003C0
0003C0
ENDCHAR

STARTCHAR FF
ENCODING 99
SWIDTH 1131 0
DWIDTH 22 0
BBX 20 13 1 -1
BITMAP
FFC000
F00000
F00000
FF0000
F00000
F00000
000000
003FF0
003C00
003C00
003FC0
003C00
003C00
ENDCHAR

STARTCHAR CR
ENCODING 100
SWIDTH 1131 0
DWIDTH 22 0
BBX 20 13 1 -1
BITMAP
3F0000
F0C000
F00000
F00000
F0C000
3F0000
000000
003FC0
003C30
003C30
003FC0
003CF0
003C30
ENDCHAR

STARTCHAR LF
ENCODING 101
SWIDTH 1131 0
DWIDTH 22 0
BBX 20 13 1 -1
BITMAP
F00000
F00000
F00000
F00000
F00000
FFC000
000000
003FF0
003C00
003C00
003FC0
003C00
003C00
ENDCHAR

STARTCHAR degree
ENCODING 102
SWIDTH 1131 0
DWIDTH 22 0
BBX 10 5 6 6
BITMAP
7F80
E1C0
C0C0
E1C0
7F80
ENDCHAR

STARTCHAR plusminus
ENCODING 103
SWIDTH 1131 0
DWIDTH 22 0
BBX 16 11 3 0
BITMAP
03C0
03C0
03C0
FFFF
FFFF
03C0
03C0
03C0
0000
FFFF
FFFF
ENDCHAR

STARTCHAR NL
ENCODING 104
SWIDTH 1131 0
DWIDTH 22 0
BBX 20 13 1 -1
BITMAP
F8F000
FCF000
F6F000
F3F000
F1F000
F0F000
000000
000F00
000F00
000F00
000F00
000F00
000FF0
ENDCHAR

STARTCHAR VT
ENCODING 105
SWIDTH 1131 0
DWIDTH 22 0
BBX 20 13 1 -1
BITMAP
F0F000
F0F000
F0F000
30C000
3FC000
0F0000
000000
000FF0
0003C0
0003C0
0003C0
0003C0
0003C0
ENDCHAR

STARTCHAR ldcornsqlr
ENCODING 106
SWIDTH 1131 0
DWIDTH 22 0
BBX 13 11 0 4
BITMAP
0078
0078
0078
0078
0078
0078
0078
0078
0078
FFF8
FFF8
ENDCHAR

STARTCHAR ldcornsqur
ENCODING 107
SWIDTH 1131 0
DWIDTH 22 0
BBX 13 11 0 -5
BITMAP
FFF8
FFF8
0078
0078
0078
0078
0078
0078
0078
0078
0078
ENDCHAR

STARTCHAR ldcornsqul
ENCODING 108
SWIDTH 1131 0
DWIDTH 22 0
BBX 13 11 9 -5
BITMAP
FFF8
FFF8
F000
F000
F000
F000
F000
F000
F000
F000
F000
ENDCHAR

STARTCHAR ldcornsqll
ENCODING 109
SWIDTH 1131 0
DWIDTH 22 0
BBX 13 11 9 4
BITMAP
F000
F000
F000
F000
F000
F000
F000
F000
F000
FFF8
FFF8
ENDCHAR

STARTCHAR ldcross
ENCODING 110
SWIDTH 1131 0
DWIDTH 22 0
BBX 22 20 0 -5
BITMAP
007800
007800
007800
007800
007800
007800
007800
007800
007800
FFFFFC
FFFFFC
007800
007800
007800
007800
007800
007800
007800
007800
007800
ENDCHAR

STARTCHAR ldscan1
ENCODING 111
SWIDTH 1131 0
DWIDTH 22 0
BBX 22 2 0 11
BITMAP
FFFFFC
FFFFFC
ENDCHAR

STARTCHAR ldscan3
ENCODING 112
SWIDTH 1131 0
DWIDTH 22 0
BBX 22 2 0 7
BITMAP
FFFFFC
FFFFFC
ENDCHAR

STARTCHAR ldhorizontal
ENCODING 113
SWIDTH 1131 0
DWIDTH 22 0
BBX 22 2 0 4
BITMAP
FFFFFC
FFFFFC
ENDCHAR

STARTCHAR ldscan7
ENCODING 114
SWIDTH 1131 0
DWIDTH 22 0
BBX 22 2 0 -1
BITMAP
FFFFFC
FFFFFC
ENDCHAR

STARTCHAR ldscan9
ENCODING 115
SWIDTH 1131 0
DWIDTH 22 0
BBX 22 2 0 -5
BITMAP
FFFFFC
FFFFFC
ENDCHAR

STARTCHAR ldteelft
ENCODING 116
SWIDTH 1131 0
DWIDTH 22 0
BBX 13 20 9 -5
BITMAP
F000
F000
F000
F000
F000
F000
F000
F000
F000
FFF8
FFF8
F000
F000
F000
F000
F000
F000
F000
F000
F000
ENDCHAR

STARTCHAR ldteert
ENCODING 117
SWIDTH 1131 0
DWIDTH 22 0
BBX 13 20 0 -5
BITMAP
0078
0078
0078
0078
0078
0078
0078
0078
0078
FFF8
FFF8
0078
0078
0078
0078
0078
0078
0078
0078
0078
ENDCHAR

STARTCHAR ldteebt
ENCODING 118
SWIDTH 1131 0
DWIDTH 22 0
BBX 22 11 0 4
BITMAP
007800
007800
007800
007800
007800
007800
007800
007800
007800
FFFFFC
FFFFFC
ENDCHAR

STARTCHAR ldteetp
ENCODING 119
SWIDTH 1131 0
DWIDTH 22 0
BBX 22 11 0 -5
BITMAP
FFFFFC
FFFFFC
007800
007800
007800
007800
007800
007800
007800
007800
007800
ENDCHAR

STARTCHAR ldvertical
ENCODING 120
SWIDTH 1131 0
DWIDTH 22 0
BBX 4 20 9 -5
BITMAP
F0
F0
F0
F0
F0
F0
F0
F0
F0
F0
F0
F0
F0
F0
F0
F0
F0
F0
F0
F0
ENDCHAR

STARTCHAR lessequal
ENCODING 121
SWIDTH 1131 0
DWIDTH 22 0
BBX 18 10 2 0
BITMAP
003FC0
0FFFC0
FF0000
FF0000
0FFFC0
003FC0
000000
000000
FFFFC0
FFFFC0
ENDCHAR

STARTCHAR greaterequal
ENCODING 122
SWIDTH 1131 0
DWIDTH 22 0
BBX 18 10 2 0
BITMAP
FF0000
FFFC00
003FC0
003FC0
FFFC00
FF0000
000000
000000
FFFFC0
FFFFC0
ENDCHAR

STARTCHAR pi
ENCODING 123
SWIDTH 1131 0
DWIDTH 22 0
BBX 20 9 1 0
BITMAP
FFFFF0
1E0F00
1E0E00
1C1E00
3C1E00
3C1C00
383C00
783C00
781F80
ENDCHAR

STARTCHAR notequal
ENCODING 124
SWIDTH 1131 0
DWIDTH 22 0
BBX 16 8 3 1
BITMAP
0018
FFFF
FFFF
01C0
0700
FFFF
FFFF
1800
ENDCHAR

STARTCHAR sterling
ENCODING 125
SWIDTH 1131 0
DWIDTH 22 0
BBX 16 11 3 0
BITMAP
07FF
1E07
3C03
3C00
1E00
FFFC
0F00
0E00
1C00
FFE3
E0FE
ENDCHAR

STARTCHAR periodcentered
ENCODING 126
SWIDTH 1131 0
DWIDTH 22 0
BBX 8 4 7 3
BITMAP
7E
FF
FF
7E
ENDCHAR

STARTCHAR Error
ENCODING 159
SWIDTH 1131 0
DWIDTH 22 0
BBX 19 19 2 -4
BITMAP
1FFF00
7FFFC0
FFFFE0
FC07E0
FC07E0
FC0000
FE0000
7F8000
3FE000
0FF800
03FC00
00FC00
00FC00
000000
000000
007C00
00FE00
00FE00
007C00
ENDCHAR

STARTCHAR ldradicalbt
ENCODING 161
SWIDTH 1131 0
DWIDTH 22 0
BBX 11 13 2 2
BITMAP
01E0
01E0
01E0
01E0
01E0
01E0
31E0
79E0
DDE0
0FE0
07E0
03E0
01E0
ENDCHAR

STARTCHAR ldradicaltp
ENCODING 162
SWIDTH 1131 0
DWIDTH 22 0
BBX 13 11 9 -5
BITMAP
FFF8
FFF8
F000
F000
F000
F000
F000
F000
F000
F000
F000
ENDCHAR

STARTCHAR ldhorizontal
ENCODING 163
SWIDTH 1131 0
DWIDTH 22 0
BBX 22 2 0 4
BITMAP
FFFFFC
FFFFFC
ENDCHAR

STARTCHAR ldintegraltp
ENCODING 164
SWIDTH 1131 0
DWIDTH 22 0
BBX 12 18 9 -5
BITMAP
3FF0
7FF0
7000
F000
F000
F000
F000
F000
F000
F000
F000
F000
F000
F000
F000
F000
F000
F000
ENDCHAR

STARTCHAR ldintegralbt
ENCODING 165
SWIDTH 1131 0
DWIDTH 22 0
BBX 12 18 1 -3
BITMAP
00F0
00F0
00F0
00F0
00F0
00F0
00F0
00F0
00F0
00F0
00F0
00F0
00F0
00F0
00F0
00E0
FFE0
FFC0
ENDCHAR

STARTCHAR ldvertical
ENCODING 166
SWIDTH 1131 0
DWIDTH 22 0
BBX 4 20 9 -5
BITMAP
F0
F0
F0
F0
F0
F0
F0
F0
F0
F0
F0
F0
F0
F0
F0
F0
F0
F0
F0
F0
ENDCHAR

STARTCHAR ldbracketlfttp
ENCODING 167
SWIDTH 1131 0
DWIDTH 22 0
BBX 8 18 9 -5
BITMAP
FF
F0
F0
F0
F0
F0
F0
F0
F0
F0
F0
F0
F0
F0
F0
F0
F0
F0
ENDCHAR

STARTCHAR ldbracketlftbt
ENCODING 168
SWIDTH 1131 0
DWIDTH 22 0
BBX 8 18 9 -3
BITMAP
F0
F0
F0
F0
F0
F0
F0
F0
F0
F0
F0
F0
F0
F0
F0
F0
F0
FF
ENDCHAR

STARTCHAR ldbracketrttp
ENCODING 169
SWIDTH 1131 0
DWIDTH 22 0
BBX 8 18 5 -5
BITMAP
FF
0F
0F
0F
0F
0F
0F
0F
0F
0F
0F
0F
0F
0F
0F
0F
0F
0F
ENDCHAR

STARTCHAR ldbracketrtbt
ENCODING 170
SWIDTH 1131 0
DWIDTH 22 0
BBX 8 18 5 -3
BITMAP
0F
0F
0F
0F
0F
0F
0F
0F
0F
0F
0F
0F
0F
0F
0F
0F
0F
FF
ENDCHAR

STARTCHAR ldbracelfttp
ENCODING 171
SWIDTH 1131 0
DWIDTH 22 0
BBX 8 18 9 -5
BITMAP
0F
3C
78
70
F0
F0
F0
F0
F0
F0
F0
F0
F0
F0
F0
F0
F0
F0
ENDCHAR

STARTCHAR ldbracelftbt
ENCODING 172
SWIDTH 1131 0
DWIDTH 22 0
BBX 8 18 9 -3
BITMAP
F0
F0
F0
F0
F0
F0
F0
F0
F0
F0
F0
F0
F0
F0
70
78
3C
0F
ENDCHAR

STARTCHAR ldbracerttp
ENCODING 173
SWIDTH 1131 0
DWIDTH 22 0
BBX 8 18 5 -5
BITMAP
F0
3C
1E
0E
0F
0F
0F
0F
0F
0F
0F
0F
0F
0F
0F
0F
0F
0F
ENDCHAR

STARTCHAR ldbracertbt
ENCODING 174
SWIDTH 1131 0
DWIDTH 22 0
BBX 8 18 5 -3
BITMAP
0F
0F
0F
0F
0F
0F
0F
0F
0F
0F
0F
0F
0F
0F
0E
1E
3C
F0
ENDCHAR

STARTCHAR ldbracelftmid
ENCODING 175
SWIDTH 1131 0
DWIDTH 22 0
BBX 8 20 5 -5
BITMAP
0F
0F
0F
0F
0F
0F
0F
0F
0F
1E
F0
1E
0F
0F
0F
0F
0F
0F
0F
0F
ENDCHAR

STARTCHAR ldbracertmid
ENCODING 176
SWIDTH 1131 0
DWIDTH 22 0
BBX 8 20 9 -5
BITMAP
F0
F0
F0
F0
F0
F0
F0
F0
F0
78
0F
78
F0
F0
F0
F0
F0
F0
F0
F0
ENDCHAR

STARTCHAR ldsigmalfttp
ENCODING 177
SWIDTH 1131 0
DWIDTH 22 0
BBX 14 11 8 -5
BITMAP
FFFC
FFFC
3C00
1E00
0F00
03C0
01E0
00F0
0078
003C
001C
ENDCHAR

STARTCHAR ldsigmalftbt
ENCODING 178
SWIDTH 1131 0
DWIDTH 22 0
BBX 14 11 8 4
BITMAP
001C
003C
0078
00F0
01E0
07C0
0F00
1E00
3C00
FFFC
FFFC
ENDCHAR

STARTCHAR ldbackslash
ENCODING 179
SWIDTH 1131 0
DWIDTH 22 0
BBX 22 20 0 -5
BITMAP
C00000
E00000
F00000
780000
3E0000
0F0000
078000
03C000
01E000
00F800
003C00
001E00
000F00
0007C0
0001E0
0000F0
000078
00003C
00001C
00000C
ENDCHAR

STARTCHAR ldslash
ENCODING 180
SWIDTH 1131 0
DWIDTH 22 0
BBX 22 20 0 -5
BITMAP
00000C
00001C
00003C
000078
0001F0
0003C0
000780
000F00
001E00
007C00
00F000
01E000
03C000
0F8000
1E0000
3C0000
780000
F00000
E00000
C00000
ENDCHAR

STARTCHAR ldsigmarttp
ENCODING 181
SWIDTH 1131 0
DWIDTH 22 0
BBX 22 5 0 1
BITMAP
FFFFFC
FFFFFC
00003C
00003C
00003C
ENDCHAR

STARTCHAR ldsigmartbt
ENCODING 182
SWIDTH 1131 0
DWIDTH 22 0
BBX 22 5 0 4
BITMAP
00003C
00003C
00003C
FFFFFC
FFFFFC
ENDCHAR

STARTCHAR ldsigmamid
ENCODING 183
SWIDTH 1131 0
DWIDTH 22 0
BBX 12 20 0 -5
BITMAP
C000
E000
F000
7800
3E00
1F00
0780
03C0
01E0
00F0
00F0
01E0
03C0
0780
1F00
3C00
7800
F000
E000
C000
ENDCHAR

STARTCHAR lessequal
ENCODING 188
SWIDTH 1131 0
DWIDTH 22 0
BBX 16 10 3 0
BITMAP
007F
1FFF
FE00
FE00
1FFF
007F
0000
0000
FFFF
FFFF
ENDCHAR

STARTCHAR notequal
ENCODING 189
SWIDTH 1131 0
DWIDTH 22 0
BBX 16 8 3 1
BITMAP
0018
FFFF
FFFF
01C0
0700
FFFF
FFFF
1800
ENDCHAR

STARTCHAR greaterequal
ENCODING 190
SWIDTH 1131 0
DWIDTH 22 0
BBX 16 10 3 0
BITMAP
FE00
FFF8
007F
007F
FFF8
FE00
0000
0000
FFFF
FFFF
ENDCHAR

STARTCHAR integral
ENCODING 191
SWIDTH 1131 0
DWIDTH 22 0
BBX 18 18 2 -4
BITMAP
007F00
00FF80
00E1C0
01E0C0
01E0C0
01E000
01E000
01E000
01E000
01E000
01E000
01E000
01E000
C1E000
C1E000
E1C000
7FC000
3F8000
ENDCHAR

STARTCHAR therefore
ENCODING 192
SWIDTH 1131 0
DWIDTH 22 0
BBX 20 9 1 0
BITMAP
01F800
03FC00
01F800
000000
000000
000000
7E07E0
FF0FF0
7E07E0
ENDCHAR

STARTCHAR proportional
ENCODING 193
SWIDTH 1131 0
DWIDTH 22 0
BBX 20 7 1 2
BITMAP
3F83F0
7FCFF0
E0FC00
E0F800
E0FC00
7FCFF0
3F83F0
ENDCHAR

STARTCHAR infinity
ENCODING 194
SWIDTH 1131 0
DWIDTH 22 0
BBX 20 7 1 2
BITMAP
3F07C0
7FDFE0
E1F870
C06030
E1F870
7FDFE0
3F07C0
ENDCHAR

STARTCHAR divide
ENCODING 195
SWIDTH 1131 0
DWIDTH 22 0
BBX 16 8 3 1
BITMAP
03C0
03C0
0000
FFFF
FFFF
0000
03C0
03C0
ENDCHAR

STARTCHAR Delta
ENCODING 196
SWIDTH 1131 0
DWIDTH 22 0
BBX 20 11 1 0
BITMAP
006000
00F000
01F800
03FC00
079E00
0F0F00
1E0780
3C03C0
7801E0
FFFFF0
FFFFF0
ENDCHAR

STARTCHAR gradient
ENCODING 197
SWIDTH 1131 0
DWIDTH 22 0
BBX 20 11 1 0
BITMAP
FFFFF0
FFFFF0
7801E0
3C03C0
1E0780
0F0F00
079E00
03FC00
01F800
00F000
006000
ENDCHAR

STARTCHAR Phi
ENCODING 198
SWIDTH 1131 0
DWIDTH 22 0
BBX 20 11 1 0
BITMAP
0FFF00
00F000
1FFF80
78F1E0
F0F0F0
F0F0F0
F0F0F0
78F1E0
1FFF80
00F000
0FFF00
ENDCHAR

STARTCHAR Gamma
ENCODING 199
SWIDTH 1131 0
DWIDTH 22 0
BBX 18 11 2 0
BITMAP
FFFFC0
0F03C0
0F03C0
0F03C0
0F0000
0F0000
0F0000
0F0000
0F0000
0F0000
FFFC00
ENDCHAR

STARTCHAR similar
ENCODING 200
SWIDTH 1131 0
DWIDTH 22 0
BBX 16 4 3 3
BITMAP
3F07
7FC7
E1FE
E07C
ENDCHAR

STARTCHAR approxequal
ENCODING 201
SWIDTH 1131 0
DWIDTH 22 0
BBX 16 8 3 1
BITMAP
3F07
7FC7
E1FE
E07C
0000
0000
FFFF
FFFF
ENDCHAR

STARTCHAR Theta
ENCODING 202
SWIDTH 1131 0
DWIDTH 22 0
BBX 18 11 2 0
BITMAP
0FFC00
3C0F00
780780
F003C0
F333C0
F3F3C0
F333C0
F003C0
780780
3C0F00
0FFC00
ENDCHAR

STARTCHAR multiply
ENCODING 203
SWIDTH 1131 0
DWIDTH 22 0
BBX 14 8 4 1
BITMAP
E01C
F87C
3CF0
0FC0
0FC0
3CF0
F87C
E01C
ENDCHAR

STARTCHAR Lambda
ENCODING 204
SWIDTH 1131 0
DWIDTH 22 0
BBX 20 11 1 0
BITMAP
006000
00F000
01F800
03FC00
079E00
0F0F00
1E0780
3C03C0
7801E0
F000F0
FE07F0
ENDCHAR

STARTCHAR arrowdblboth
ENCODING 205
SWIDTH 1131 0
DWIDTH 22 0
BBX 20 9 1 1
BITMAP
030C00
0E0700
3FFFC0
7FFFE0
E00070
7FFFE0
3FFFC0
0E0700
030C00
ENDCHAR

STARTCHAR arrowdblright
ENCODING 206
SWIDTH 1131 0
DWIDTH 22 0
BBX 20 11 1 0
BITMAP
003000
003C00
000F00
FFFFC0
FFFFE0
000070
FFFFE0
FFFFC0
000F00
003C00
003000
ENDCHAR

STARTCHAR equivalence
ENCODING 207
SWIDTH 1131 0
DWIDTH 22 0
BBX 16 8 3 1
BITMAP
FFFF
FFFF
0000
FFFF
FFFF
0000
FFFF
FFFF
ENDCHAR

STARTCHAR Pi
ENCODING 208
SWIDTH 1131 0
DWIDTH 22 0
BBX 18 11 2 0
BITMAP
FFFFC0
3C0F00
3C0F00
3C0F00
3C0F00
3C0F00
3C0F00
3C0F00
3C0F00
3C0F00
FF3FC0
ENDCHAR

STARTCHAR Psi
ENCODING 209
SWIDTH 1131 0
DWIDTH 22 0
BBX 20 11 1 0
BITMAP
0FFF00
00F000
F0F0F0
F0F0F0
F0F0F0
F0F0F0
78F1E0
1FFF80
00F000
00F000
1FFF80
ENDCHAR

STARTCHAR Sigma
ENCODING 211
SWIDTH 1131 0
DWIDTH 22 0
BBX 18 11 2 0
BITMAP
FFFFC0
3E03C0
0F83C0
03E3C0
00F800
003C00
00F800
03E3C0
0F83C0
3E03C0
FFFFC0
ENDCHAR

STARTCHAR radical
ENCODING 214
SWIDTH 1131 0
DWIDTH 22 0
BBX 21 16 1 -2
BITMAP
000018
000038
000070
0000E0
0001C0
000380
F00780
F80F00
380E00
1C1C00
1C3800
0E7000
0EE000
07E000
03C000
038000
ENDCHAR

STARTCHAR Omega
ENCODING 215
SWIDTH 1131 0
DWIDTH 22 0
BBX 18 11 2 0
BITMAP
0FFC00
3C0F00
780780
F003C0
F003C0
F003C0
780780
3C0F00
0C0C00
CC0CC0
FC0FC0
ENDCHAR

STARTCHAR Xi
ENCODING 216
SWIDTH 1131 0
DWIDTH 22 0
BBX 18 11 2 0
BITMAP
FFFFC0
F003C0
F003C0
000000
3C0F00
3FFF00
3C0F00
000000
F003C0
F003C0
FFFFC0
ENDCHAR

STARTCHAR Upsilon1
ENCODING 217
SWIDTH 1131 0
DWIDTH 22 0
BBX 20 11 1 0
BITMAP
F801F0
3C03C0
1E0780
0F0F00
079E00
03FC00
01F800
00F000
00F000
00F000
0FFF00
ENDCHAR

STARTCHAR propersubset
ENCODING 218
SWIDTH 1131 0
DWIDTH 22 0
BBX 18 11 2 0
BITMAP
0FFFC0
3FFFC0
780000
700000
F00000
F00000
F00000
700000
780000
3FFFC0
0FFFC0
ENDCHAR

STARTCHAR propersuperset
ENCODING 219
SWIDTH 1131 0
DWIDTH 22 0
BBX 18 11 2 0
BITMAP
FFFC00
FFFF00
000780
000380
0003C0
0003C0
0003C0
000380
000780
FFFF00
FFFC00
ENDCHAR

STARTCHAR intersection
ENCODING 220
SWIDTH 1131 0
DWIDTH 22 0
BBX 18 11 2 0
BITMAP
1FFE00
7FFF80
780780
F003C0
F003C0
F003C0
F003C0
F003C0
F003C0
F003C0
F003C0
ENDCHAR

STARTCHAR union
ENCODING 221
SWIDTH 1131 0
DWIDTH 22 0
BBX 18 11 2 0
BITMAP
F003C0
F003C0
F003C0
F003C0
F003C0
F003C0
F003C0
F003C0
780780
7FFF80
1FFE00
ENDCHAR

STARTCHAR logicaland
ENCODING 222
SWIDTH 1131 0
DWIDTH 22 0
BBX 18 9 2 0
BITMAP
00C000
01E000
03F000
07F800
0F3C00
1E1E00
3C0F00
780780
F003C0
ENDCHAR

STARTCHAR logicalor
ENCODING 223
SWIDTH 1131 0
DWIDTH 22 0
BBX 18 9 2 0
BITMAP
F003C0
780780
3C0F00
1E1E00
0F3C00
07F800
03F000
01E000
00C000
ENDCHAR

STARTCHAR logicalnot
ENCODING 224
SWIDTH 1131 0
DWIDTH 22 0
BBX 16 5 3 2
BITMAP
FFFF
FFFF
000F
000F
000F
ENDCHAR

STARTCHAR alpha
ENCODING 225
SWIDTH 1131 0
DWIDTH 22 0
BBX 20 9 1 0
BITMAP
0FF070
3C0CF0
7803C0
F00380
F00380
F00700
F80F00
7C3390
1FC1E0
ENDCHAR

STARTCHAR beta
ENCODING 226
SWIDTH 1131 0
DWIDTH 22 0
BBX 21 16 0 -4
BITMAP
007FF0
01F078
03C078
078078
0700F0
0F1FC0
0E00F0
1E0078
1E0078
3E0078
3B81F0
78FFC0
700000
F00000
E00000
E00000
ENDCHAR

STARTCHAR chi
ENCODING 227
SWIDTH 1131 0
DWIDTH 22 0
BBX 22 13 0 -4
BITMAP
0FC00C
03C03C
01E0F0
00E1C0
007780
007E00
003C00
00FC00
03FE00
0F0E00
3C0700
F00780
C003F0
ENDCHAR

STARTCHAR delta
ENCODING 228
SWIDTH 1131 0
DWIDTH 22 0
BBX 16 12 3 0
BITMAP
07FF
0F00
0F00
07E0
03FC
1E7E
781F
F00F
F00F
F00F
781E
1FF8
ENDCHAR

STARTCHAR epsilon
ENCODING 229
SWIDTH 1131 0
DWIDTH 22 0
BBX 16 9 3 0
BITMAP
0FFF
3E00
7800
F000
FFFC
F000
F000
7800
1FFF
ENDCHAR

STARTCHAR phi
ENCODING 230
SWIDTH 1131 0
DWIDTH 22 0
BBX 20 16 1 -4
BITMAP
001C00
001800
003800
07FF80
3E39E0
7870F0
F070F0
F070F0
F0E0F0
F0E1E0
78E7C0
1FFE00
01C000
01C000
018000
038000
ENDCHAR

STARTCHAR gamma
ENCODING 231
SWIDTH 1131 0
DWIDTH 22 0
BBX 20 13 1 -4
BITMAP
FC01F0
3C03E0
1E0780
0F0F00
071E00
07BC00
03F800
01F000
03C000
078000
0F0000
1E0000
3C0000
ENDCHAR

STARTCHAR eta
ENCODING 232
SWIDTH 1131 0
DWIDTH 22 0
BBX 18 13 2 -4
BITMAP
FC7F80
0FC3C0
1F03C0
1E03C0
3C0780
3C0780
780F00
780F00
F00E00
001E00
001E00
003C00
003C00
ENDCHAR

STARTCHAR iota
ENCODING 233
SWIDTH 1131 0
DWIDTH 22 0
BBX 14 9 4 0
BITMAP
FF00
0F00
0F00
1E00
1E00
3C00
3C00
3E3C
1FF0
ENDCHAR

STARTCHAR theta
ENCODING 234
SWIDTH 1131 0
DWIDTH 22 0
BBX 18 12 2 0
BITMAP
03FC00
0F0700
1C0380
3803C0
7803C0
FFFFC0
F003C0
F00780
F00700
700E00
383C00
0FF000
ENDCHAR

STARTCHAR kappa
ENCODING 235
SWIDTH 1131 0
DWIDTH 22 0
BBX 18 9 2 0
BITMAP
FC03C0
3C0F00
3C3C00
3CF000
7FE000
78F000
F07800
F03C00
F01FC0
ENDCHAR

STARTCHAR lambda
ENCODING 236
SWIDTH 1131 0
DWIDTH 22 0
BBX 22 12 0 0
BITMAP
07F000
00F800
007800
003C00
007E00
00FE00
01CF00
038F80
070780
0E03C0
1C03E0
F801FC
ENDCHAR

STARTCHAR nu
ENCODING 238
SWIDTH 1131 0
DWIDTH 22 0
BBX 17 9 3 0
BITMAP
FE0780
1E0780
1E0780
1E0F00
1E0F00
1E1E00
1E7800
1FE000
1F8000
ENDCHAR

STARTCHAR partialdiff
ENCODING 239
SWIDTH 1131 0
DWIDTH 22 0
BBX 16 11 3 0
BITMAP
3FF0
007C
001E
000F
1FEF
781F
F00F
F00F
F00F
781E
1FF8
ENDCHAR

STARTCHAR pi
ENCODING 240
SWIDTH 1131 0
DWIDTH 22 0
BBX 20 9 1 0
BITMAP
FFFFF0
1E0F00
1E0E00
1C1E00
3C1E00
3C1C00
383C00
783C00
781F80
ENDCHAR

STARTCHAR psi
ENCODING 241
SWIDTH 1131 0
DWIDTH 22 0
BBX 20 16 1 -4
BITMAP
003800
003800
003800
FC30F0
3C70F0
3870F0
7870F0
7061E0
F0E1E0
F0E3C0
F8EF80
3FFE00
00C000
01C000
01C000
01C000
ENDCHAR

STARTCHAR rho
ENCODING 242
SWIDTH 1131 0
DWIDTH 22 0
BBX 20 13 1 -4
BITMAP
03FF00
0F03C0
1E01E0
1C00F0
3C00F0
3C00F0
3E01E0
7F03C0
7BFF00
780000
700000
F00000
F00000
ENDCHAR

STARTCHAR sigma
ENCODING 243
SWIDTH 1131 0
DWIDTH 22 0
BBX 20 9 1 0
BITMAP
07FFF0
3E0700
780380
F003C0
F003C0
F003C0
F00780
781F00
1FF800
ENDCHAR

STARTCHAR tau
ENCODING 244
SWIDTH 1131 0
DWIDTH 22 0
BBX 18 9 2 0
BITMAP
FFFFC0
03C000
03C000
078000
078000
078000
0F0000
0F03C0
07FF00
ENDCHAR

STARTCHAR florin
ENCODING 246
SWIDTH 1131 0
DWIDTH 22 0
BBX 18 14 2 -3
BITMAP
000FC0
001C00
003800
003800
007000
1FFF80
00E000
00E000
01C000
01C000
038000
038000
070000
FC0000
ENDCHAR

STARTCHAR omega
ENCODING 247
SWIDTH 1131 0
DWIDTH 22 0
BBX 20 9 1 0
BITMAP
3C00F0
3C00F0
3830F0
7830F0
7870F0
F070F0
F0F0E0
F9F9E0
7F1F80
ENDCHAR

STARTCHAR xi
ENCODING 248
SWIDTH 1131 0
DWIDTH 22 0
BBX 18 16 2 -4
BITMAP
3FFFC0
078000
0F0000
0F0000
0F0000
07FC00
1E0000
780000
F00000
F00000
F80000
7FFE00
000F00
000F00
003E00
003800
ENDCHAR

STARTCHAR upsilon
ENCODING 249
SWIDTH 1131 0
DWIDTH 22 0
BBX 18 9 2 0
BITMAP
3C03C0
3C03C0
7803C0
7803C0
F00780
F00780
F00F00
783E00
1FF800
ENDCHAR

STARTCHAR zeta
ENCODING 250
SWIDTH 1131 0
DWIDTH 22 0
BBX 18 16 2 -4
BITMAP
1FFFC0
003E00
00F000
03C000
0F0000
3C0000
780000
F00000
F00000
F00000
7C0000
1FFF80
0003C0
0003C0
000F80
000E00
ENDCHAR

STARTCHAR arrowleft
ENCODING 251
SWIDTH 1131 0
DWIDTH 22 0
BBX 22 8 0 1
BITMAP
03C000
0F0000
3C0000
FFFFFC
FFFFFC
3C0000
0F0000
03C000
ENDCHAR

STARTCHAR arrowup
ENCODING 252
SWIDTH 1131 0
DWIDTH 22 0
BBX 16 16 3 -3
BITMAP
03C0
0FF0
3FFC
F3CF
03C0
03C0
03C0
03C0
03C0
03C0
03C0
03C0
03C0
03C0
03C0
03C0
ENDCHAR

STARTCHAR arrowright
ENCODING 253
SWIDTH 1131 0
DWIDTH 22 0
BBX 22 8 0 1
BITMAP
000F00
0003C0
0000F0
FFFFFC
FFFFFC
0000F0
0003C0
000F00
ENDCHAR

STARTCHAR arrowdown
ENCODING 254
SWIDTH 1131 0
DWIDTH 22 0
BBX 16 16 3 -3
BITMAP
03C0
03C0
03C0
03C0
03C0
03C0
03C0
03C0
03C0
03C0
03C0
03C0
F3CF
3FFC
0FF0
03C0
ENDCHAR
ENDFONT
